<svg width="20" height="20" viewBox="0 0 20 20" fill="none" xmlns="http://www.w3.org/2000/svg">
<g id="Icon/people">
<path id="Vector" d="M2.91677 6.66667C2.91693 5.8766 3.12133 5.09998 3.51012 4.41219C3.89891 3.7244 4.45889 3.14879 5.13572 2.74122C5.81255 2.33365 6.58324 2.10796 7.37301 2.08605C8.16278 2.06414 8.9448 2.24676 9.64318 2.61618C10.3416 2.98561 10.9326 3.52929 11.3589 4.19447C11.7852 4.85964 12.0324 5.62373 12.0763 6.41258C12.1203 7.20143 11.9596 7.98824 11.6098 8.69668C11.2601 9.40511 10.7331 10.0111 10.0801 10.4558C11.4864 10.9716 12.7061 11.8964 13.5823 13.1113C14.4585 14.3261 14.9511 15.7753 14.9968 17.2725C14.9948 17.4339 14.9306 17.5883 14.8175 17.7035C14.7044 17.8187 14.5511 17.8857 14.3897 17.8905C14.2284 17.8954 14.0714 17.8377 13.9516 17.7295C13.8318 17.6213 13.7584 17.471 13.7468 17.31C13.6971 15.6862 13.0172 14.1456 11.8511 13.0145C10.6849 11.8835 9.12423 11.2509 7.49969 11.2509C5.87514 11.2509 4.31443 11.8835 3.14829 13.0145C1.98215 14.1456 1.30223 15.6862 1.2526 17.31C1.24426 17.4732 1.17233 17.6266 1.05224 17.7374C0.932137 17.8482 0.773418 17.9076 0.61008 17.9028C0.446743 17.898 0.291779 17.8295 0.178387 17.7118C0.0649947 17.5941 0.00219305 17.4367 0.00343608 17.2733C0.0488955 15.776 0.541442 14.3266 1.41767 13.1116C2.29391 11.8966 3.51372 10.9717 4.9201 10.4558C4.30246 10.0355 3.79701 9.47052 3.44783 8.81006C3.09864 8.1496 2.91633 7.41375 2.91677 6.66667ZM7.5001 3.33333C6.61605 3.33333 5.7682 3.68452 5.14308 4.30964C4.51796 4.93477 4.16677 5.78261 4.16677 6.66667C4.16677 7.55072 4.51796 8.39857 5.14308 9.02369C5.7682 9.64881 6.61605 10 7.5001 10C8.38416 10 9.232 9.64881 9.85713 9.02369C10.4822 8.39857 10.8334 7.55072 10.8334 6.66667C10.8334 5.78261 10.4822 4.93477 9.85713 4.30964C9.232 3.68452 8.38416 3.33333 7.5001 3.33333ZM14.4084 6.66667C14.2851 6.66667 14.1651 6.675 14.0468 6.69167C13.9642 6.70646 13.8794 6.70446 13.7976 6.68579C13.7157 6.66712 13.6385 6.63216 13.5705 6.58299C13.5025 6.53382 13.445 6.47146 13.4016 6.39962C13.3582 6.32778 13.3298 6.24793 13.3179 6.16484C13.306 6.08175 13.311 5.99712 13.3326 5.916C13.3541 5.83489 13.3918 5.75894 13.4433 5.69269C13.4948 5.62644 13.5592 5.57126 13.6325 5.53042C13.7058 5.48958 13.7866 5.46393 13.8701 5.455C14.6989 5.33517 15.544 5.49433 16.2725 5.90744C17.0009 6.32054 17.5713 6.96414 17.8939 7.73694C18.2165 8.50974 18.273 9.36787 18.0545 10.1763C17.8359 10.9847 17.3548 11.6975 16.6868 12.2025C17.6688 12.6422 18.5025 13.3567 19.0875 14.2597C19.6725 15.1627 19.9836 16.2157 19.9834 17.2917C19.9834 17.4574 19.9176 17.6164 19.8004 17.7336C19.6832 17.8508 19.5242 17.9167 19.3584 17.9167C19.1927 17.9167 19.0337 17.8508 18.9165 17.7336C18.7993 17.6164 18.7334 17.4574 18.7334 17.2917C18.7333 16.3618 18.4337 15.4567 17.879 14.7104C17.3242 13.9641 16.5438 13.4164 15.6534 13.1483L15.2084 13.015V11.6183L15.5501 11.4442C16.0566 11.1876 16.4618 10.7679 16.7004 10.2527C16.9389 9.73753 16.9969 9.15698 16.865 8.6048C16.733 8.05261 16.4188 7.56101 15.9731 7.20936C15.5274 6.8577 14.9762 6.66652 14.4084 6.66667Z" fill="black"/>
</g>
</svg>
