<svg width="20" height="20" viewBox="0 0 20 20" fill="none" xmlns="http://www.w3.org/2000/svg">
<g id="Icon/calender">
<path id="Vector" d="M1.6665 15.8333C1.6665 17.25 2.74984 18.3333 4.1665 18.3333H15.8332C17.2498 18.3333 18.3332 17.25 18.3332 15.8333V9.16666H1.6665V15.8333ZM15.8332 3.33332H14.1665V2.49999C14.1665 1.99999 13.8332 1.66666 13.3332 1.66666C12.8332 1.66666 12.4998 1.99999 12.4998 2.49999V3.33332H7.49984V2.49999C7.49984 1.99999 7.1665 1.66666 6.6665 1.66666C6.1665 1.66666 5.83317 1.99999 5.83317 2.49999V3.33332H4.1665C2.74984 3.33332 1.6665 4.41666 1.6665 5.83332V7.49999H18.3332V5.83332C18.3332 4.41666 17.2498 3.33332 15.8332 3.33332Z" fill="black"/>
</g>
</svg>
