<svg width="20" height="20" viewBox="0 0 20 20" fill="none" xmlns="http://www.w3.org/2000/svg">
<g id="Icon/send">
<path id="Vector" d="M2.70698 1.87499C2.01913 1.54642 1.26341 2.17499 1.45984 2.91142L2.89984 8.29214C2.93593 8.42737 3.01095 8.54902 3.11559 8.64197C3.22023 8.73493 3.34987 8.79509 3.48841 8.81499L10.5484 9.82356C10.7527 9.85214 10.7527 10.1479 10.5484 10.1771L3.48913 11.185C3.35058 11.2049 3.22094 11.2651 3.1163 11.358C3.01166 11.451 2.93664 11.5726 2.90055 11.7079L1.45984 17.0914C1.26341 17.8271 2.01913 18.4557 2.70698 18.1278L18.0627 10.8071C18.7406 10.4843 18.7406 9.51856 18.0627 9.19499L2.70698 1.87499Z" fill="black"/>
</g>
</svg>
