<svg width="20" height="20" viewBox="0 0 20 20" fill="none" xmlns="http://www.w3.org/2000/svg">
<g id="Icon/organizer">
<path id="Vector" fill-rule="evenodd" clip-rule="evenodd" d="M7.99345 2.66665C7.86239 2.78524 7.72466 2.89626 7.58095 2.99915C7.33262 3.16582 7.05345 3.28082 6.76012 3.33915C6.63262 3.36415 6.49928 3.37499 6.23345 3.39582C5.56595 3.44915 5.23178 3.47582 4.95345 3.57415C4.6352 3.68652 4.34614 3.86871 4.10749 4.10736C3.86884 4.34601 3.68665 4.63507 3.57428 4.95332C3.47595 5.23165 3.44928 5.56582 3.39595 6.23332C3.38686 6.40979 3.36794 6.58562 3.33928 6.75999C3.28095 7.05332 3.16595 7.33249 2.99928 7.58082C2.92678 7.68915 2.84012 7.79082 2.66678 7.99332C2.23262 8.50332 2.01512 8.75832 1.88762 9.02499C1.59345 9.64165 1.59345 10.3583 1.88762 10.975C2.01512 11.2417 2.23262 11.4967 2.66678 12.0067C2.84012 12.2092 2.92678 12.3108 2.99928 12.4192C3.16595 12.6675 3.28095 12.9467 3.33928 13.24C3.36428 13.3675 3.37512 13.5008 3.39595 13.7667C3.44928 14.4342 3.47595 14.7683 3.57428 15.0467C3.68665 15.3649 3.86884 15.654 4.10749 15.8926C4.34614 16.1313 4.6352 16.3135 4.95345 16.4258C5.23178 16.5242 5.56595 16.5508 6.23345 16.6042C6.49928 16.625 6.63262 16.6358 6.76012 16.6608C7.05345 16.7192 7.33262 16.835 7.58095 17.0008C7.68928 17.0733 7.79095 17.16 7.99345 17.3333C8.50345 17.7675 8.75845 17.985 9.02512 18.1125C9.64178 18.4067 10.3585 18.4067 10.9751 18.1125C11.2418 17.985 11.4968 17.7675 12.0068 17.3333C12.2093 17.16 12.311 17.0733 12.4193 17.0008C12.6676 16.8342 12.9468 16.7192 13.2401 16.6608C13.3676 16.6358 13.501 16.625 13.7668 16.6042C14.4343 16.5508 14.7684 16.5242 15.0468 16.4258C15.365 16.3135 15.6541 16.1313 15.8927 15.8926C16.1314 15.654 16.3136 15.3649 16.426 15.0467C16.5243 14.7683 16.551 14.4342 16.6043 13.7667C16.6251 13.5008 16.636 13.3675 16.661 13.24C16.7193 12.9467 16.8351 12.6675 17.0009 12.4192C17.0734 12.3108 17.1601 12.2092 17.3334 12.0067C17.7676 11.4967 17.9851 11.2417 18.1126 10.975C18.4068 10.3583 18.4068 9.64165 18.1126 9.02499C17.9851 8.75832 17.7676 8.50332 17.3334 7.99332C17.2149 7.86226 17.1038 7.72453 17.0009 7.58082C16.8344 7.33239 16.7189 7.05339 16.661 6.75999C16.6323 6.58562 16.6134 6.40979 16.6043 6.23332C16.551 5.56582 16.5243 5.23165 16.426 4.95332C16.3136 4.63507 16.1314 4.34601 15.8927 4.10736C15.6541 3.86871 15.365 3.68652 15.0468 3.57415C14.7684 3.47582 14.4343 3.44915 13.7668 3.39582C13.5903 3.38673 13.4145 3.36781 13.2401 3.33915C12.9467 3.28123 12.6677 3.16566 12.4193 2.99915C12.2757 2.89604 12.138 2.78504 12.0068 2.66665C11.4968 2.23249 11.2418 2.01499 10.9751 1.88749C10.6707 1.74197 10.3375 1.66644 10.0001 1.66644C9.66269 1.66644 9.32955 1.74197 9.02512 1.88749C8.75845 2.01499 8.50345 2.23249 7.99345 2.66665ZM13.6443 8.21915C13.7621 8.09024 13.8256 7.92088 13.8217 7.74631C13.8177 7.57175 13.7466 7.40542 13.6232 7.28195C13.4997 7.15848 13.3334 7.08738 13.1588 7.08344C12.9842 7.07951 12.8149 7.14304 12.686 7.26082L8.64428 11.3025L7.31428 9.97332C7.18537 9.85554 7.01601 9.79201 6.84144 9.79594C6.66688 9.79988 6.50055 9.87098 6.37708 9.99445C6.25361 10.1179 6.18251 10.2842 6.17857 10.4588C6.17464 10.6334 6.23817 10.8027 6.35595 10.9317L8.16428 12.74C8.29146 12.8669 8.46378 12.9382 8.64345 12.9382C8.82312 12.9382 8.99544 12.8669 9.12262 12.74L13.6451 8.21915H13.6443Z" fill="#5A85EE"/>
</g>
</svg>
