<svg width="20" height="20" viewBox="0 0 20 20" fill="none" xmlns="http://www.w3.org/2000/svg">
<path d="M16.6923 12.9422C16.6342 13.0003 16.5653 13.0464 16.4894 13.0779C16.4136 13.1093 16.3322 13.1255 16.2501 13.1255C16.168 13.1255 16.0866 13.1093 16.0108 13.0779C15.9349 13.0464 15.866 13.0003 15.8079 12.9422L10.0001 7.1336L4.19229 12.9422C4.07502 13.0595 3.91596 13.1254 3.7501 13.1254C3.58425 13.1254 3.42519 13.0595 3.30792 12.9422C3.19064 12.8249 3.12476 12.6659 3.12476 12.5C3.12476 12.3342 3.19064 12.1751 3.30792 12.0578L9.55792 5.80782C9.61596 5.74971 9.68489 5.70361 9.76077 5.67215C9.83664 5.6407 9.91797 5.62451 10.0001 5.62451C10.0822 5.62451 10.1636 5.6407 10.2394 5.67215C10.3153 5.70361 10.3842 5.74971 10.4423 5.80782L16.6923 12.0578C16.7504 12.1159 16.7965 12.1848 16.828 12.2607C16.8594 12.3365 16.8756 12.4179 16.8756 12.5C16.8756 12.5821 16.8594 12.6635 16.828 12.7393C16.7965 12.8152 16.7504 12.8841 16.6923 12.9422Z" fill="black"/>
</svg>
