<svg width="20" height="20" viewBox="0 0 20 20" fill="none" xmlns="http://www.w3.org/2000/svg">
<g id="Icon/flag">
<path id="Vector" d="M4.99984 2.5C5.22085 2.5 5.43281 2.5878 5.58909 2.74408C5.74537 2.90036 5.83317 3.11232 5.83317 3.33333V4.06667C6.7165 3.7 7.9165 3.33333 9.1665 3.33333C11.6665 3.33333 11.6665 5 13.3332 5C15.8332 5 16.6665 3.33333 16.6665 3.33333V10C16.6665 10 15.8332 11.6667 13.3332 11.6667C10.8332 11.6667 10.8332 10 9.1665 10C6.6665 10 5.83317 11.6667 5.83317 11.6667V17.5H4.1665V3.33333C4.1665 3.11232 4.2543 2.90036 4.41058 2.74408C4.56686 2.5878 4.77882 2.5 4.99984 2.5Z" fill="black"/>
</g>
</svg>
