<svg width="20" height="20" viewBox="0 0 20 20" fill="none" xmlns="http://www.w3.org/2000/svg">
<g id="Icon/heart-strignt">
<path id="Vector" d="M17.422 4.45302C16.5729 3.60603 15.4229 3.12972 14.2236 3.12826C13.0243 3.1268 11.8732 3.60029 11.022 4.4452L10.0001 5.39442L8.97748 4.44208C8.12651 3.59349 6.97329 3.1177 5.77152 3.11939C4.56975 3.12107 3.41787 3.60009 2.56928 4.45106C1.72069 5.30204 1.2449 6.45525 1.24659 7.65703C1.24827 8.8588 1.72729 10.0107 2.57826 10.8593L9.55873 17.9421C9.61689 18.0011 9.6862 18.048 9.76266 18.08C9.83911 18.1121 9.92116 18.1285 10.004 18.1285C10.0869 18.1285 10.169 18.1121 10.2454 18.08C10.3219 18.048 10.3912 18.0011 10.4494 17.9421L17.422 10.8593C18.2712 10.0096 18.7482 8.85744 18.7482 7.65614C18.7482 6.45485 18.2712 5.30271 17.422 4.45302ZM16.5353 9.98114L10.0001 16.6093L3.46107 9.97489C2.84569 9.35951 2.49997 8.52487 2.49997 7.65458C2.49997 6.78429 2.84569 5.94965 3.46107 5.33427C4.07646 4.71888 4.9111 4.37316 5.78139 4.37316C6.65167 4.37316 7.48631 4.71888 8.1017 5.33427L8.11732 5.34989L9.57435 6.70536C9.69001 6.81299 9.84214 6.87283 10.0001 6.87283C10.1581 6.87283 10.3103 6.81299 10.4259 6.70536L11.8829 5.34989L11.8986 5.33427C12.5144 4.7193 13.3492 4.37414 14.2195 4.37472C15.0898 4.37531 15.9242 4.72159 16.5392 5.33739C17.1542 5.95319 17.4993 6.78807 17.4987 7.65835C17.4982 8.52864 17.1519 9.36305 16.5361 9.97802L16.5353 9.98114Z" fill="black"/>
</g>
</svg>
