<svg width="20" height="20" viewBox="0 0 20 20" fill="none" xmlns="http://www.w3.org/2000/svg">
<g id="Icon/photo">
<path id="Vector" d="M18.125 9.53125H14.7797C15.2422 8.69883 15.4794 7.76005 15.4677 6.80782C15.456 5.85559 15.1958 4.92292 14.713 4.10211C14.2301 3.28131 13.5413 2.60081 12.7147 2.12798C11.8881 1.65515 10.9523 1.40636 10 1.40625C9.87568 1.40625 9.75645 1.45564 9.66854 1.54354C9.58064 1.63145 9.53125 1.75068 9.53125 1.875V5.22031C8.69883 4.75777 7.76005 4.52061 6.80782 4.53231C5.85559 4.544 4.92292 4.80415 4.10211 5.28701C3.28131 5.76987 2.60081 6.45869 2.12798 7.28531C1.65515 8.11193 1.40636 9.0477 1.40625 10C1.40625 10.1243 1.45564 10.2435 1.54354 10.3315C1.63145 10.4194 1.75068 10.4688 1.875 10.4688H5.22031C4.75777 11.3012 4.52061 12.24 4.53231 13.1922C4.544 14.1444 4.80415 15.0771 5.28701 15.8979C5.76987 16.7187 6.45869 17.3992 7.28531 17.872C8.11193 18.3449 9.0477 18.5936 10 18.5938C10.1243 18.5938 10.2435 18.5444 10.3315 18.4565C10.4194 18.3685 10.4688 18.2493 10.4688 18.125V14.7797C11.3012 15.2422 12.24 15.4794 13.1922 15.4677C14.1444 15.456 15.0771 15.1958 15.8979 14.713C16.7187 14.2301 17.3992 13.5413 17.872 12.7147C18.3449 11.8881 18.5936 10.9523 18.5938 10C18.5938 9.87568 18.5444 9.75645 18.4565 9.66854C18.3685 9.58064 18.2493 9.53125 18.125 9.53125ZM14.5312 6.875C14.5353 7.82939 14.2342 8.76008 13.6719 9.53125H10.4688V2.36797C11.5828 2.48524 12.6141 3.01047 13.3642 3.84256C14.1142 4.67465 14.5299 5.75478 14.5312 6.875ZM6.875 5.46875C7.82939 5.46473 8.76008 5.76584 9.53125 6.32812V9.53125H2.36797C2.48524 8.41718 3.01047 7.38587 3.84256 6.63585C4.67465 5.88582 5.75478 5.47012 6.875 5.46875ZM5.46875 13.125C5.46473 12.1706 5.76584 11.2399 6.32812 10.4688H9.53125V17.632C8.41718 17.5148 7.38587 16.9895 6.63585 16.1574C5.88582 15.3253 5.47012 14.2452 5.46875 13.125ZM13.125 14.5312C12.1706 14.5353 11.2399 14.2342 10.4688 13.6719V10.4688H17.632C17.5148 11.5828 16.9895 12.6141 16.1574 13.3642C15.3253 14.1142 14.2452 14.5299 13.125 14.5312Z" fill="black"/>
</g>
</svg>
