<svg width="20" height="20" viewBox="0 0 20 20" fill="none" xmlns="http://www.w3.org/2000/svg">
<g id="Icon/share">
<path id="Vector" d="M16.4618 9.16668C16.6128 9.16668 16.7587 9.22138 16.8725 9.32065C16.9864 9.41992 17.0604 9.55705 17.0809 9.70668L17.0868 9.79168V15.625C17.087 16.3169 16.8224 16.9827 16.3473 17.4857C15.8722 17.9887 15.2226 18.2908 14.5318 18.33L14.3784 18.3342H5.21175C4.51997 18.3342 3.85439 18.0695 3.35156 17.5945C2.84872 17.1194 2.54675 16.4698 2.50758 15.7792L2.50342 15.6258V9.79168C2.50347 9.63332 2.56362 9.48089 2.67173 9.36518C2.77984 9.24948 2.92783 9.17912 3.08582 9.16832C3.2438 9.15753 3.39999 9.20711 3.52283 9.30704C3.64567 9.40697 3.726 9.5498 3.74758 9.70668L3.75342 9.79168V15.625C3.75322 15.9911 3.89076 16.344 4.1387 16.6134C4.38665 16.8828 4.72686 17.0491 5.09175 17.0792L5.21175 17.0842H14.3784C14.7445 17.0841 15.0973 16.9464 15.3665 16.6983C15.6358 16.4502 15.8018 16.1099 15.8318 15.745L15.8368 15.6258V9.79168C15.8368 9.62592 15.9026 9.46695 16.0198 9.34974C16.137 9.23253 16.296 9.16668 16.4618 9.16668ZM5.18258 6.01334L9.34675 1.85001C9.45257 1.74416 9.59287 1.67981 9.74213 1.66864C9.89139 1.65748 10.0397 1.70025 10.1601 1.78918L10.2301 1.84918L14.4009 6.01334C14.513 6.12472 14.5788 6.27444 14.585 6.43236C14.5911 6.59027 14.5372 6.74466 14.4341 6.86444C14.331 6.98423 14.1864 7.0605 14.0293 7.07793C13.8723 7.09535 13.7144 7.05262 13.5876 6.95834L13.5176 6.89751L10.4151 3.80084V13.5458C10.4151 13.6967 10.3605 13.8426 10.2614 13.9564C10.1623 14.0702 10.0254 14.1443 9.87592 14.165L9.79092 14.1708C9.63989 14.1708 9.49397 14.1161 9.38014 14.0169C9.26632 13.9176 9.19229 13.7805 9.17175 13.6308L9.16592 13.5458L9.16508 3.79834L6.06675 6.89751C5.96088 7.00358 5.82042 7.06807 5.67097 7.07924C5.52153 7.0904 5.37304 7.0475 5.25258 6.95834L5.18258 6.89751C5.07664 6.79153 5.0123 6.65102 5.00129 6.50158C4.99028 6.35213 5.03332 6.20371 5.12258 6.08334L5.18258 6.01334Z" fill="black"/>
</g>
</svg>
