<svg width="18" height="18" viewBox="0 0 18 18" fill="none" xmlns="http://www.w3.org/2000/svg">
<g id="Group">
<path id="Vector" fill-rule="evenodd" clip-rule="evenodd" d="M8.99984 1.29163C6.95546 1.29163 4.99482 2.10375 3.54922 3.54934C2.10363 4.99494 1.2915 6.95558 1.2915 8.99996C1.2915 11.0443 2.10363 13.005 3.54922 14.4506C4.99482 15.8962 6.95546 16.7083 8.99984 16.7083C11.0442 16.7083 13.0049 15.8962 14.4505 14.4506C15.896 13.005 16.7082 11.0443 16.7082 8.99996C16.7082 6.95558 15.896 4.99494 14.4505 3.54934C13.0049 2.10375 11.0442 1.29163 8.99984 1.29163ZM0.0415039 8.99996C0.0415039 4.05246 4.05234 0.041626 8.99984 0.041626C13.9473 0.041626 17.9582 4.05246 17.9582 8.99996C17.9582 13.9475 13.9473 17.9583 8.99984 17.9583C4.05234 17.9583 0.0415039 13.9475 0.0415039 8.99996ZM5.99734 11.9608C6.04627 11.8948 6.10774 11.8391 6.17821 11.7969C6.24869 11.7547 6.32679 11.7268 6.40806 11.7148C6.48933 11.7028 6.57216 11.707 6.65183 11.727C6.73149 11.747 6.80642 11.7826 6.87234 11.8316C7.479 12.2816 8.2115 12.5416 8.99984 12.5416C9.78817 12.5416 10.5207 12.2808 11.1273 11.8316C11.193 11.7805 11.2683 11.743 11.3487 11.7214C11.4291 11.6997 11.513 11.6944 11.5955 11.7056C11.678 11.7168 11.7575 11.7444 11.8291 11.7868C11.9008 11.8292 11.9633 11.8854 12.013 11.9523C12.0626 12.0191 12.0984 12.0952 12.1182 12.1761C12.138 12.257 12.1415 12.341 12.1284 12.4232C12.1153 12.5054 12.0859 12.5842 12.0419 12.6549C11.9979 12.7256 11.9403 12.7868 11.8723 12.835C11.0429 13.4551 10.0354 13.7906 8.99984 13.7916C7.96426 13.7906 6.95673 13.4551 6.12734 12.835C5.99419 12.7363 5.9057 12.5887 5.88132 12.4248C5.85694 12.2609 5.89867 12.094 5.99734 11.9608Z" fill="black"/>
<path id="Vector_2" d="M12.3332 7.75C12.3332 8.44 11.9598 9 11.4998 9C11.0398 9 10.6665 8.44 10.6665 7.75C10.6665 7.06 11.0398 6.5 11.4998 6.5C11.9598 6.5 12.3332 7.06 12.3332 7.75ZM7.33317 7.75C7.33317 8.44 6.95984 9 6.49984 9C6.03984 9 5.6665 8.44 5.6665 7.75C5.6665 7.06 6.03984 6.5 6.49984 6.5C6.95984 6.5 7.33317 7.06 7.33317 7.75Z" fill="black"/>
</g>
</svg>
