<svg width="20" height="20" viewBox="0 0 20 20" fill="none" xmlns="http://www.w3.org/2000/svg">
<g id="Icon/password">
<path id="Vector" d="M9.99967 14.1667C10.4417 14.1667 10.8656 13.9911 11.1782 13.6785C11.4907 13.366 11.6663 12.942 11.6663 12.5C11.6663 12.058 11.4907 11.6341 11.1782 11.3215C10.8656 11.0089 10.4417 10.8333 9.99967 10.8333C9.55765 10.8333 9.13372 11.0089 8.82116 11.3215C8.5086 11.6341 8.33301 12.058 8.33301 12.5C8.33301 12.942 8.5086 13.366 8.82116 13.6785C9.13372 13.9911 9.55765 14.1667 9.99967 14.1667ZM14.9997 6.66668C15.4417 6.66668 15.8656 6.84227 16.1782 7.15483C16.4907 7.46739 16.6663 7.89132 16.6663 8.33334V16.6667C16.6663 17.1087 16.4907 17.5326 16.1782 17.8452C15.8656 18.1577 15.4417 18.3333 14.9997 18.3333H4.99967C4.55765 18.3333 4.13372 18.1577 3.82116 17.8452C3.5086 17.5326 3.33301 17.1087 3.33301 16.6667V8.33334C3.33301 7.89132 3.5086 7.46739 3.82116 7.15483C4.13372 6.84227 4.55765 6.66668 4.99967 6.66668H5.83301V5.00001C5.83301 3.89494 6.27199 2.83513 7.0534 2.05373C7.8348 1.27233 8.89461 0.833344 9.99967 0.833344C10.5468 0.833344 11.0887 0.941118 11.5942 1.15051C12.0997 1.35991 12.559 1.66682 12.946 2.05373C13.3329 2.44064 13.6398 2.89997 13.8492 3.4055C14.0586 3.91102 14.1663 4.45284 14.1663 5.00001V6.66668H14.9997ZM9.99967 2.50001C9.33663 2.50001 8.70075 2.7634 8.23191 3.23224C7.76307 3.70108 7.49967 4.33697 7.49967 5.00001V6.66668H12.4997V5.00001C12.4997 4.33697 12.2363 3.70108 11.7674 3.23224C11.2986 2.7634 10.6627 2.50001 9.99967 2.50001Z" fill="black"/>
</g>
</svg>
