<svg width="20" height="20" viewBox="0 0 20 20" fill="none" xmlns="http://www.w3.org/2000/svg">
<g id="Icon/won">
<path id="Vector" d="M9.85578 8.88892L9.56689 10H10.4725L10.178 8.88892H9.85578Z" fill="black"/>
<path id="Vector_2" d="M6.63331 10H8.12776L8.4222 8.88892H6.33887L6.63331 10Z" fill="black"/>
<path id="Vector_3" d="M7.38329 12.8333L7.83329 11.1111H6.92773L7.38329 12.8333Z" fill="black"/>
<path id="Vector_4" d="M11.9111 10H13.4056L13.7 8.88892H11.6167L11.9111 10Z" fill="black"/>
<path id="Vector_5" d="M12.6556 12.8333L13.1111 11.1111H12.2056L12.6556 12.8333Z" fill="black"/>
<path id="Vector_6" d="M10.0002 1.11108C8.24217 1.11108 6.52359 1.63241 5.06182 2.60913C3.60005 3.58586 2.46074 4.97411 1.78796 6.59834C1.11518 8.22257 0.93915 10.0098 1.28213 11.7341C1.62511 13.4584 2.47169 15.0422 3.71483 16.2854C4.95796 17.5285 6.54181 18.3751 8.26609 18.7181C9.99036 19.061 11.7776 18.885 13.4019 18.2122C15.0261 17.5395 16.4143 16.4001 17.3911 14.9384C18.3678 13.4766 18.8891 11.758 18.8891 9.99997C18.8891 7.64249 17.9526 5.38157 16.2856 3.71458C14.6186 2.04759 12.3577 1.11108 10.0002 1.11108ZM16.1113 11.1111H14.5502L13.3336 15.7333C13.2949 15.8822 13.208 16.0141 13.0863 16.1083C12.9647 16.2024 12.8152 16.2535 12.6613 16.2535C12.5075 16.2535 12.358 16.2024 12.2363 16.1083C12.1147 16.0141 12.0277 15.8822 11.9891 15.7333L10.7669 11.1111H9.27244L8.05578 15.7333C8.01717 15.8822 7.93021 16.0141 7.80854 16.1083C7.68688 16.2024 7.53739 16.2535 7.38355 16.2535C7.22972 16.2535 7.08023 16.2024 6.95857 16.1083C6.8369 16.0141 6.74994 15.8822 6.71133 15.7333L5.48911 11.1111H3.88911C3.74177 11.1111 3.60046 11.0526 3.49627 10.9484C3.39209 10.8442 3.33355 10.7029 3.33355 10.5555C3.33355 10.4082 3.39209 10.2669 3.49627 10.1627C3.60046 10.0585 3.74177 9.99997 3.88911 9.99997H5.19467L4.90022 8.88886H3.88911C3.74177 8.88886 3.60046 8.83033 3.49627 8.72614C3.39209 8.62196 3.33355 8.48065 3.33355 8.33331C3.33355 8.18596 3.39209 8.04466 3.49627 7.94047C3.60046 7.83628 3.74177 7.77775 3.88911 7.77775H4.61133L4.05578 5.73331C4.00863 5.55502 4.03423 5.36531 4.12696 5.2059C4.21968 5.0465 4.37194 4.93046 4.55022 4.88331C4.72851 4.83616 4.91822 4.86176 5.07762 4.95449C5.23703 5.04721 5.35307 5.19947 5.40022 5.37775L6.04467 7.77775H8.71133L9.34467 5.37775C9.38327 5.22884 9.47023 5.09695 9.5919 5.00281C9.71357 4.90866 9.86305 4.85758 10.0169 4.85758C10.1707 4.85758 10.3202 4.90866 10.4419 5.00281C10.5635 5.09695 10.6505 5.22884 10.6891 5.37775L11.3224 7.77775H13.9891L14.6224 5.37775C14.6696 5.19947 14.7856 5.04721 14.945 4.95449C15.1044 4.86176 15.2942 4.83616 15.4724 4.88331C15.6507 4.93046 15.803 5.0465 15.8957 5.2059C15.9884 5.36531 16.014 5.55502 15.9669 5.73331L15.4113 7.77775H16.1113C16.2587 7.77775 16.4 7.83628 16.5042 7.94047C16.6084 8.04466 16.6669 8.18596 16.6669 8.33331C16.6669 8.48065 16.6084 8.62196 16.5042 8.72614C16.4 8.83033 16.2587 8.88886 16.1113 8.88886H15.1336L14.8391 9.99997H16.1113C16.2587 9.99997 16.4 10.0585 16.5042 10.1627C16.6084 10.2669 16.6669 10.4082 16.6669 10.5555C16.6669 10.7029 16.6084 10.8442 16.5042 10.9484C16.4 11.0526 16.2587 11.1111 16.1113 11.1111Z" fill="black"/>
</g>
</svg>
