<svg width="20" height="20" viewBox="0 0 20 20" fill="none" xmlns="http://www.w3.org/2000/svg">
<g id="Icon/question">
<path id="Vector" d="M9.50824 10.3842C9.56431 10.1984 9.66143 10.0275 9.79241 9.88421C9.9257 9.74996 10.0755 9.63319 10.2382 9.53671C10.3471 9.46837 10.4485 9.38876 10.5407 9.29921C10.6299 9.21206 10.7022 9.10923 10.7541 8.99588C10.8071 8.87773 10.8341 8.74955 10.8332 8.62004C10.8373 8.46763 10.7961 8.31743 10.7149 8.18838C10.6384 8.06803 10.5307 7.97068 10.4032 7.90671C10.269 7.83983 10.1207 7.80584 9.97074 7.80754C9.82702 7.80667 9.68484 7.8371 9.55407 7.89671C9.42206 7.95766 9.30976 8.05437 9.22991 8.17588C9.19038 8.2334 9.15924 8.29625 9.13741 8.36254C9.11015 8.44831 9.05663 8.52335 8.9844 8.57704C8.91217 8.63072 8.82489 8.66034 8.73491 8.66171C8.66728 8.66198 8.60057 8.64599 8.54043 8.61507C8.48028 8.58416 8.42845 8.53923 8.38931 8.48407C8.35017 8.42892 8.32487 8.36516 8.31555 8.29818C8.30623 8.2312 8.31315 8.16295 8.33574 8.09921C8.37354 7.99702 8.42333 7.89967 8.48407 7.80921C8.63859 7.57848 8.85448 7.3955 9.1074 7.28088C9.38555 7.16004 9.68589 7.09873 9.98914 7.10088C10.2924 7.10304 10.5918 7.16861 10.8682 7.29338C11.1151 7.4112 11.3235 7.59673 11.4691 7.82838C11.6154 8.0688 11.6897 8.34615 11.6832 8.62754C11.6864 8.8204 11.6531 9.01211 11.5849 9.19254C11.5213 9.35774 11.4268 9.50933 11.3066 9.63921C11.1799 9.77557 11.0339 9.89264 10.8732 9.98671C10.7319 10.072 10.6024 10.1757 10.4882 10.295C10.3878 10.4022 10.3147 10.532 10.2749 10.6734C10.2576 10.7511 10.2451 10.8299 10.2374 10.9092C10.2258 11.0078 10.1783 11.0986 10.1042 11.1645C10.03 11.2304 9.93414 11.2668 9.83491 11.2667C9.77862 11.2668 9.72293 11.2552 9.67142 11.2325C9.61991 11.2099 9.57371 11.1767 9.5358 11.1351C9.49789 11.0935 9.46911 11.0444 9.4513 10.991C9.43349 10.9376 9.42706 10.8811 9.43241 10.825C9.44413 10.6761 9.46952 10.5285 9.50824 10.3842Z" fill="black"/>
<path id="Vector_2" d="M9.82657 12.9009C10.0967 12.9009 10.3157 12.6819 10.3157 12.4118C10.3157 12.1416 10.0967 11.9226 9.82657 11.9226C9.55641 11.9226 9.3374 12.1416 9.3374 12.4118C9.3374 12.6819 9.55641 12.9009 9.82657 12.9009Z" fill="black"/>
<path id="Vector_3" d="M15.3652 17.4482H4.63607C4.08353 17.4482 3.55363 17.2287 3.16293 16.838C2.77223 16.4473 2.55273 15.9174 2.55273 15.3649V4.63656C2.55273 4.08402 2.77223 3.55412 3.16293 3.16342C3.55363 2.77272 4.08353 2.55322 4.63607 2.55322H15.3652C15.9178 2.55322 16.4477 2.77272 16.8384 3.16342C17.2291 3.55412 17.4486 4.08402 17.4486 4.63656V15.3649C17.4486 15.9174 17.2291 16.4473 16.8384 16.838C16.4477 17.2287 15.9178 17.4482 15.3652 17.4482ZM4.63607 3.38656C4.30455 3.38656 3.9866 3.51825 3.75218 3.75267C3.51776 3.98709 3.38607 4.30504 3.38607 4.63656V15.3649C3.38607 15.6964 3.51776 16.0144 3.75218 16.2488C3.9866 16.4832 4.30455 16.6149 4.63607 16.6149H15.3652C15.6968 16.6149 16.0147 16.4832 16.2491 16.2488C16.4835 16.0144 16.6152 15.6964 16.6152 15.3649V4.63656C16.6152 4.30504 16.4835 3.98709 16.2491 3.75267C16.0147 3.51825 15.6968 3.38656 15.3652 3.38656H4.63607Z" fill="black"/>
</g>
</svg>
