<svg width="18" height="18" viewBox="0 0 18 18" fill="none" xmlns="http://www.w3.org/2000/svg">
<path d="M9.4965 0.702573C10.3923 0.765906 11.2123 0.93674 11.7823 1.49924C12.364 2.07257 12.549 2.91257 12.549 3.95007C12.549 4.31007 12.5015 4.74591 12.4515 5.14841C12.4298 5.31507 12.409 5.47507 12.3882 5.62507L12.3415 5.98257H14.0498C14.6765 5.98257 15.2548 6.07257 15.7465 6.31924C16.2565 6.57424 16.6315 6.97507 16.8757 7.51174C17.3348 8.52341 17.3273 10.0184 17.0615 12.0067L17.019 12.3317C16.9073 13.1734 16.8123 13.8917 16.689 14.4817C16.5507 15.1442 16.3607 15.7284 16.009 16.1901C15.2673 17.1634 14.0132 17.3334 12.1898 17.3334C10.2473 17.3334 8.78984 16.9851 7.56984 16.6467L7.06817 16.5051C6.21567 16.2634 5.52484 16.0667 4.8265 16.0167C4.79131 16.3773 4.62316 16.7119 4.35481 16.9553C4.08646 17.1987 3.73712 17.3335 3.37484 17.3334H2.12484C1.73806 17.3334 1.36713 17.1798 1.09364 16.9063C0.820149 16.6328 0.666504 16.2618 0.666504 15.8751V7.12507C0.666504 6.32007 1.31984 5.66674 2.12484 5.66674H3.37484C3.74472 5.66676 4.10078 5.80733 4.37092 6.05999C4.64107 6.31264 4.80511 6.65852 4.82984 7.02757C4.97967 7.01266 5.1265 6.97588 5.26567 6.91841C6.0665 6.57257 7.57734 5.64007 7.57734 3.41841V2.54091C7.57734 1.52424 8.41234 0.625906 9.4965 0.702573ZM4.83317 14.7651C5.71567 14.8184 6.56567 15.0609 7.4315 15.3084L7.90484 15.4417C9.0765 15.7667 10.4098 16.0834 12.1898 16.0834C14.0873 16.0834 14.6932 15.8551 15.0148 15.4326C15.1948 15.1967 15.3382 14.8342 15.4648 14.2259C15.5782 13.6842 15.6665 13.0176 15.7807 12.1617L15.8223 11.8417C16.089 9.84174 16.0332 8.67924 15.7373 8.02924C15.604 7.73591 15.4248 7.55591 15.1873 7.43674C14.9332 7.30924 14.5707 7.23257 14.0498 7.23257H12.0748C11.5073 7.23257 10.9973 6.75757 11.0657 6.12591C11.0873 5.92341 11.1198 5.67841 11.1532 5.43091L11.2115 4.99174C11.2615 4.59007 11.299 4.22424 11.299 3.95007C11.299 3.01257 11.1215 2.60257 10.9048 2.38924C10.6757 2.16424 10.2598 2.01007 9.409 1.94924C9.1165 1.92924 8.82734 2.17757 8.82734 2.54091V3.41841C8.82734 6.37674 6.754 7.63757 5.76067 8.06591C5.45067 8.19924 5.13234 8.25924 4.83317 8.28257V14.7651ZM2.12484 16.0834H3.37484C3.43009 16.0834 3.48308 16.0615 3.52215 16.0224C3.56122 15.9833 3.58317 15.9303 3.58317 15.8751V7.12507C3.58317 7.06982 3.56122 7.01683 3.52215 6.97776C3.48308 6.93869 3.43009 6.91674 3.37484 6.91674H2.12484C2.06958 6.91674 2.01659 6.93869 1.97752 6.97776C1.93845 7.01683 1.9165 7.06982 1.9165 7.12507V15.8751C1.9165 15.9901 2.00984 16.0834 2.12484 16.0834Z" fill="#919191"/>
</svg>
